<?xml version="1.0" encoding="UTF-8" standalone="no"?>
<!-- Created with Inkscape (http://www.inkscape.org/) -->

<svg width="79.019974mm"
  height="59.614578mm"
  viewBox="0 0 79.019974 59.614578"
  version="1.1"
  id="svg1"
  xml:space="preserve"
  xmlns="http://www.w3.org/2000/svg"
  xmlns:svg="http://www.w3.org/2000/svg">
  <defs id="defs1">
    <marker style="overflow:visible"
      id="marker5"
      refX="0"
      refY="0"
      orient="auto-start-reverse"
      markerWidth="1"
      markerHeight="1"
      viewBox="0 0 1 1"
      preserveAspectRatio="xMidYMid">
      <path style="fill:none;stroke:context-stroke;stroke-width:1;stroke-linecap:round"
        d="M 3,-3 0,0 3,3"
        transform="rotate(180,0.125,0)"
        id="path5" />
    </marker>
    <marker style="overflow:visible"
      id="ArrowWideRounded"
      refX="0"
      refY="0"
      orient="auto-start-reverse"
      markerWidth="1"
      markerHeight="1"
      viewBox="0 0 1 1"
      preserveAspectRatio="xMidYMid">
      <path style="fill:none;stroke:context-stroke;stroke-width:1;stroke-linecap:round"
        d="M 3,-3 0,0 3,3"
        transform="rotate(180,0.125,0)"
        id="path3" />
    </marker>
  </defs>
  <g id="layer1"
    transform="translate(-98.649995,-69.650002)">
    <g id="g39">
      <path style="fill:#00ffff;fill-opacity:1;stroke:#00ffff;stroke-width:0.529167;stroke-linecap:round;stroke-opacity:1"
        d="M 115.99999,127.94167 V 93.058333 a 2.0465911,2.0465911 117.34439 0 1 0.86363,-1.670068 l 22.27274,-15.77653 a 1.4941177,1.4941177 0 0 1 1.72726,0 l 22.27274,15.77653 a 2.0465911,2.0465911 62.655607 0 1 0.86363,1.670068 V 127.94167 A 1.0583334,1.0583334 135 0 1 162.94166,129 h -45.88334 a 1.0583334,1.0583334 45 0 1 -1.05833,-1.05833 z"
        id="path1" />
      <rect style="fill:#ffff00;fill-opacity:1;stroke:#ffff00;stroke-width:0.529248;stroke-linecap:round;stroke-opacity:1"
        id="rect1"
        width="23.831453"
        height="0.92510641"
        x="45.925705"
        y="139.87344"
        ry="0.49984846"
        transform="matrix(0.81395645,-0.5809259,0.56051422,0.8281448,0,0)"
        rx="0.49984273" />
      <path style="fill:none;fill-rule:evenodd;stroke:#0000ff;stroke-width:0.7;stroke-linecap:round;stroke-linejoin:miter;stroke-dasharray:none;stroke-opacity:1;marker-end:url(#ArrowWideRounded)"
        d="M 106,70.000002 118,83"
        id="path2" />
      <path style="fill:none;fill-rule:evenodd;stroke:#00ff00;stroke-width:0.7;stroke-linecap:round;stroke-linejoin:miter;stroke-dasharray:none;stroke-opacity:1;marker-end:url(#marker5)"
        d="M 98.999994,114 H 109"
        id="path4" />
      <path style="fill:none;fill-rule:evenodd;stroke:#ff0000;stroke-width:0.7;stroke-linecap:round;stroke-linejoin:miter;stroke-dasharray:none;stroke-opacity:1;marker-end:url(#marker5)"
        d="m 166.99999,106 h 10"
        id="path6" />
    </g>
  </g>
</svg>
