<?xml version="1.0" encoding="UTF-8" standalone="no"?>
<!-- Created with Inkscape (http://www.inkscape.org/) -->

<svg
   width="5.71698mm"
   height="10.595744mm"
   viewBox="0 0 5.71698 10.595744"
   version="1.1"
   id="svg1"
   xml:space="preserve"
   xmlns="http://www.w3.org/2000/svg"
   xmlns:svg="http://www.w3.org/2000/svg"><defs
     id="defs1" /><g
     id="layer1"
     transform="translate(-59.080893,-129.99999)"><g
       id="g38"><path
         style="fill:#ff0000;fill-opacity:1;stroke:none;stroke-width:0.7;stroke-linecap:round;stroke-dasharray:none"
         d="m 60.529165,130 h 1.941666 a 0.38140164,0.38140164 54.217483 0 1 0.36183,0.50201 l -0.665327,1.99598 A 0.38140164,0.38140164 54.217483 0 0 62.529164,133 h 1.941665 a 0.32704299,0.32704299 58.282526 0 1 0.292516,0.4733 l -3.526698,7.0534 a 0.12491931,0.12491931 13.282526 0 1 -0.236651,-0.0559 v -3.94166 A 0.52916668,0.52916668 45 0 0 60.470829,136 h -0.941664 a 0.44827143,0.44827143 49.731161 0 1 -0.442173,-0.52197 l 0.826012,-4.95606 A 0.62466032,0.62466032 139.73116 0 1 60.529165,130 Z"
         id="path22" /></g></g></svg>
