<?xml version="1.0" encoding="UTF-8" standalone="no"?>
<!-- Created with Inkscape (http://www.inkscape.org/) -->

<svg
   width="11.999995mm"
   height="12.000002mm"
   viewBox="0 0 11.999995 12.000002"
   version="1.1"
   id="svg1"
   xml:space="preserve"
   xmlns="http://www.w3.org/2000/svg"
   xmlns:svg="http://www.w3.org/2000/svg"><defs
     id="defs1" /><g
     id="layer1"
     transform="translate(-57.000005,-91.000003)"><g
       id="g37"><ellipse
         style="fill:#ffff00;fill-opacity:1;stroke:none;stroke-width:0;stroke-linecap:round;stroke-dasharray:none"
         id="path7"
         cx="63"
         cy="97"
         rx="3.000001"
         ry="2.9999979" /><path
         style="fill:#ffff00;fill-opacity:1;stroke:none;stroke-width:0;stroke-linecap:round;stroke-dasharray:none"
         d="m 67.529164,96.500002 h 0.941667 a 0.52916668,0.52916668 45 0 1 0.529167,0.529167 0.50084997,0.50084997 138.33847 0 1 -0.529167,0.470833 h -0.941667 a 0.52916668,0.52916668 45 0 1 -0.529167,-0.529167 0.50084997,0.50084997 138.33847 0 1 0.529167,-0.470833 z"
         id="path8" /><path
         style="fill:#ffff00;fill-opacity:1;stroke:none;stroke-width:0;stroke-linecap:round;stroke-dasharray:none"
         d="m 66.556154,99.849051 0.66586,0.665859 a 0.52916462,0.52916462 90.000172 0 1 -2e-6,0.74836 0.50085097,0.50085097 3.3388326 0 1 -0.707106,-0.0413 l -0.665858,-0.66585 a 0.52916593,0.52916593 89.999959 0 1 -10e-7,-0.748357 0.50084959,0.50084959 3.3384873 0 1 0.707107,0.04125 z"
         id="path14" /><path
         style="fill:#ffff00;fill-opacity:1;stroke:none;stroke-width:0;stroke-linecap:round;stroke-dasharray:none"
         d="m 65.84905,93.443846 0.66586,-0.66586 a 0.52916668,0.52916668 0 0 1 0.748354,0 0.50085012,0.50085012 93.338453 0 1 -0.04125,0.707107 l -0.66586,0.66586 a 0.52916668,0.52916668 0 0 1 -0.748354,0 0.50085012,0.50085012 93.338453 0 1 0.04125,-0.707107 z"
         id="path16" /><path
         style="fill:#ffff00;fill-opacity:1;stroke:none;stroke-width:0;stroke-linecap:round;stroke-dasharray:none"
         d="m 62.500002,92.470836 v -0.941667 a 0.52916668,0.52916668 135 0 1 0.529167,-0.529167 0.50084997,0.50084997 48.338472 0 1 0.470833,0.529167 v 0.941667 a 0.52916668,0.52916668 135 0 1 -0.529167,0.529167 0.50084997,0.50084997 48.338472 0 1 -0.470833,-0.529167 z"
         id="path17" /><path
         style="fill:#ffff00;fill-opacity:1;stroke:none;stroke-width:0;stroke-linecap:round;stroke-dasharray:none"
         d="m 59.443846,94.15095 -0.66586,-0.66586 a 0.52916668,0.52916668 90 0 1 0,-0.748354 0.50085012,0.50085012 3.3384534 0 1 0.707107,0.04125 l 0.66586,0.66586 a 0.52916668,0.52916668 90 0 1 0,0.748354 0.50085012,0.50085012 3.3384534 0 1 -0.707107,-0.04125 z"
         id="path18" /><path
         style="fill:#ffff00;fill-opacity:1;stroke:none;stroke-width:0;stroke-linecap:round;stroke-dasharray:none"
         d="m 63.499998,101.52917 v 0.94166 A 0.52916668,0.52916668 135 0 1 62.970831,103 0.50084997,0.50084997 48.338472 0 1 62.499998,102.47083 v -0.94166 A 0.52916668,0.52916668 135 0 1 63.029165,101 a 0.50084997,0.50084997 48.338472 0 1 0.470833,0.52917 z"
         id="path19" /><path
         style="fill:#ffff00;fill-opacity:1;stroke:none;stroke-width:0;stroke-linecap:round;stroke-dasharray:none"
         d="m 60.150949,100.55616 -0.665858,0.66585 a 0.52916631,0.52916631 1.0128548e-4 0 1 -0.748355,0 0.50085147,0.50085147 93.338424 0 1 0.04125,-0.70711 l 0.665858,-0.665853 a 0.52916631,0.52916631 1.0128548e-4 0 1 0.748355,10e-7 0.50085147,0.50085147 93.338424 0 1 -0.04125,0.707112 z"
         id="path20" /><path
         style="fill:#ffff00;fill-opacity:1;stroke:none;stroke-width:0;stroke-linecap:round;stroke-dasharray:none"
         d="m 58.470836,97.499998 h -0.941667 a 0.52916668,0.52916668 45 0 1 -0.529167,-0.529167 0.50084997,0.50084997 138.33847 0 1 0.529167,-0.470833 h 0.941667 a 0.52916668,0.52916668 45 0 1 0.529167,0.529167 0.50084997,0.50084997 138.33847 0 1 -0.529167,0.470833 z"
         id="path21" /></g></g></svg>
